<mxfile host="app.diagrams.net" modified="2023-12-12T10:32:08.269Z" agent="Mozilla/5.0 (Windows NT 10.0; Win64; x64) AppleWebKit/537.36 (KHTML, like Gecko) Chrome/119.0.0.0 Safari/537.36" version="22.1.7" etag="qaJbraBmqKmbrcFwRvrE" type="github">
  <diagram name="Сторінка-1" id="tEX07KgFOIutZoiv74tc">
    <mxGraphModel>
      <root>
        <mxCell id="0" />
        <mxCell id="1" parent="0" />
      </root>
    </mxGraphModel>
  </diagram>
</mxfile>
